<svg width="512" height="512" viewBox="0 0 512 512" fill="none" xmlns="http://www.w3.org/2000/svg">
<g clip-path="url(#clip0_532_97)">
<rect x="164" y="114" width="206" height="271" fill="white"/>
<path d="M512 256C512 397.4 397.4 512 256 512C114.6 512 0 397.4 0 256C0 114.6 114.6 0 256 0C397.4 0 512 114.6 512 256ZM188.3 147.1C180.7 151.3 176 159.4 176 168V344C176 352.7 180.7 360.7 188.3 364.9C195.9 369.1 205.1 369 212.6 364.4L356.6 276.4C363.7 272 368.1 264.3 368.1 255.9C368.1 247.5 363.7 239.8 356.6 235.4L212.6 147.4C205.2 142.9 195.9 142.7 188.3 146.9V147.1Z" fill="#4624AF"/>
</g>
<defs>
<clipPath id="clip0_532_97">
<rect width="512" height="512" fill="white"/>
</clipPath>
</defs>
</svg>
