<?xml version="1.0" encoding="UTF-8" standalone="no"?>
<svg
   xmlns:dc="http://purl.org/dc/elements/1.1/"
   xmlns:cc="http://creativecommons.org/ns#"
   xmlns:rdf="http://www.w3.org/1999/02/22-rdf-syntax-ns#"
   xmlns:svg="http://www.w3.org/2000/svg"
   xmlns="http://www.w3.org/2000/svg"
   xmlns:sodipodi="http://sodipodi.sourceforge.net/DTD/sodipodi-0.dtd"
   xmlns:inkscape="http://www.inkscape.org/namespaces/inkscape"
   width="60"
   height="60"
   viewBox="0 0 60 60"
   fill="none"
   version="1.1"
   id="svg94"
   sodipodi:docname="Group-5-2-1-Greetings-Icon-Circle.svg"
   inkscape:version="1.0.1 (1.0.1+r73)">
  <metadata
     id="metadata100">
    <rdf:RDF>
      <cc:Work
         rdf:about="">
        <dc:format>image/svg+xml</dc:format>
        <dc:type
           rdf:resource="http://purl.org/dc/dcmitype/StillImage" />
      </cc:Work>
    </rdf:RDF>
  </metadata>
  <defs
     id="defs98" />
  <sodipodi:namedview
     pagecolor="#ffffff"
     bordercolor="#666666"
     borderopacity="1"
     objecttolerance="10"
     gridtolerance="10"
     guidetolerance="10"
     inkscape:pageopacity="0"
     inkscape:pageshadow="2"
     inkscape:window-width="1366"
     inkscape:window-height="719"
     id="namedview96"
     showgrid="false"
     inkscape:zoom="8.9666667"
     inkscape:cx="31.394052"
     inkscape:cy="15.543967"
     inkscape:window-x="0"
     inkscape:window-y="25"
     inkscape:window-maximized="1"
     inkscape:current-layer="svg94" />
  <g
     id="g927">
    <path
       d="M30 60C46.5685 60 60 46.5685 60 30C60 13.4315 46.5685 0 30 0C13.4315 0 0 13.4315 0 30C0 46.5685 13.4315 60 30 60Z"
       fill="#DA0DE9"
       fill-opacity="0.25"
       id="path90"
       style="fill:#483b71;fill-opacity:0.25098041" />
    <path
       d="M35 26C31.69 26 29 28.69 29 32C29 35.31 31.69 38 35 38C38.31 38 41 35.31 41 32C41 28.69 38.31 26 35 26ZM23 28C20.79 28 19 29.79 19 32C19 34.21 20.79 36 23 36C25.21 36 27 34.21 27 32C27 29.79 25.21 28 23 28ZM23 34C21.9 34 21 33.1 21 32C21 30.9 21.9 30 23 30C24.1 30 25 30.9 25 32C25 33.1 24.1 34 23 34Z"
       fill="#DA0DE9"
       id="path92"
       style="fill:#483b71;fill-opacity:1" />
  </g>
</svg>
