<svg version="1.2" xmlns="http://www.w3.org/2000/svg" viewBox="0 0 500 500" width="500" height="500">
	<title>Development-amico-1-svg</title>
	<style>
		.s0 { fill: #f5f5f5 } 
		.s1 { fill: #e0e0e0 } 
		.s2 { opacity: .3;fill: #000000 } 
		.s3 { fill: #da0de9 } 
		.s4 { opacity: .4;fill: #ffffff } 
		.s5 { fill: #381d8c } 
		.s6 { opacity: .4;fill: #000000 } 
		.s7 { fill: #4624af } 
		.s8 { opacity: .2;fill: #000000 } 
		.s9 { opacity: .1;fill: #000000 } 
		.s10 { opacity: .5;fill: #ffffff } 
		.s11 { fill: #37474f } 
		.s12 { fill: #455a64 } 
		.s13 { fill: #263238 } 
		.s14 { fill: #e6e6e6 } 
		.s15 { fill: #ebebeb } 
		.s16 { fill: #fafafa } 
		.s17 { fill: #ffffff } 
		.s18 { opacity: .2;fill: #4624af } 
		.s19 { fill: #ffa8a7 } 
		.s20 { fill: #f28f8f } 
		.s21 { opacity: .5;fill: #000000 } 
		.s22 { opacity: .7;fill: #000000 } 
		.s23 { opacity: .7;fill: #ffffff } 
	</style>
	<path id="Layer" class="s0" d="m37.5 313.8c0-73.5 94.7-133.1 211.6-133.1c116.8 0 211.5 59.6 211.5 133.1c0 73.6-94.7 133.2-211.5 133.2c-116.9 0-211.6-59.6-211.6-133.2z" />
	<path id="Layer" class="s1" d="m276 390.9c0-14.9 20.9-27 46.6-27c25.8 0 46.7 12.1 46.7 27c0 14.8-20.9 26.9-46.7 26.9c-25.7 0-46.6-12.1-46.6-26.9z" />
	<path id="Layer" class="s2" d="m61 196.5l0.2 0.1l-0.2-0.1l-0.5-0.3z" />
	<path id="Layer" class="s3" d="m57.7 194q0 0.2 0 0.4q-0.1-0.2 0-0.4l0.7-2.2z" />
	<path id="Layer" class="s4" d="m57.7 194q0 0.2 0 0.4q-0.1-0.2 0-0.4l0.7-2.2z" />
	<path id="Layer" class="s5" d="m126 185.3q-0.2-0.1-0.4-0.1l-5.3-0.3q-0.2 0.1-0.4 0q-0.2-0.1-0.3-0.2q-0.1-0.1-0.2-0.3q0-0.1 0-0.3c0.1-0.9 0.1-1.7 0.1-2.5z" />
	<path id="Layer" class="s5" d="m104.7 221.8q0.1 0.1 0.2 0.1l-6.5-3.8c0.6-0.4 1.3-0.8 1.8-1.2c0.5-0.3 1.1-0.3 1.3 0z" />
	<path id="Layer" class="s5" d="m85.1 220.8q0.2 0.3 0.1 0.7l-2 8.8q0 0.2 0.1 0.4q0 0.1 0.2 0.2l-10-5.8q0.4 0 0.7-0.3l6.3-5.8q0.3-0.3 0.7-0.3q0.3-0.1 0.7 0.1q1.2 1 2.7 1.5q0.3 0.2 0.5 0.5z" />
	<path id="Layer" class="s5" d="m103 204.2c-2.1 2.4-4.9 4.3-8 5.2l-0.3 0.1l-0.3 0.1l-0.5 0.1h-0.7h-0.6c-1.2 0-2.4-0.3-3.5-1c-1-0.7-1.8-1.7-2.3-2.9q-0.7-1.5-0.8-3.2c0.4-0.3 1-0.5 1.4-0.8c6.9-4 12.5-13.6 12.5-21.5c0-0.6 0-1.2-0.1-1.7c1.4-0.7 2.9-1 4.4-0.9h0.3h0.2h0.2c1.1 0.1 2.1 0.5 3 1.2c0.8 0.7 1.5 1.6 1.9 2.6c2.5 5.9-0.5 16-6.8 22.7z" />
	<path id="Layer" class="s6" d="m103 204.2c-2.1 2.4-4.9 4.3-8 5.2l-0.3 0.1l-0.3 0.1l-0.5 0.1h-0.7h-0.6c-1.2 0-2.4-0.3-3.5-1c-1-0.7-1.8-1.7-2.3-2.9q-0.7-1.5-0.8-3.2c0.4-0.3 1-0.5 1.4-0.8c6.9-4 12.5-13.6 12.5-21.5c0-0.6 0-1.2-0.1-1.7c1.4-0.7 2.9-1 4.4-0.9h0.3h0.2h0.2c1.1 0.1 2.1 0.5 3 1.2c0.8 0.7 1.5 1.6 1.9 2.6c2.5 5.9-0.5 16-6.8 22.7z" />
	<path id="Layer" fill-rule="evenodd" class="s7" d="m126.3 185.7q0.1 0.3 0 0.5l-3 9.8q-0.1 0.4-0.5 0.7q-0.3 0.3-0.8 0.4l-5.8 1.4c-0.6 0.2-1.1 0.6-1.5 1.1q-1.4 2.8-3.1 5.5c-0.3 0.4-0.4 1-0.3 1.5l1.9 6.4q0 0.4-0.1 0.8q-0.2 0.4-0.5 0.7l-6.8 7.2c-0.3 0.3-0.7 0.4-1 0.3q-0.1-0.1-0.1-0.2l-3.2-4.8c-0.2-0.4-0.7-0.4-1.3 0c-0.6 0.4-1.2 0.8-1.9 1.2q-1 0.5-2 1c-0.6 0.2-1 0.7-1.3 1.3l-3.4 9q-0.2 0.4-0.5 0.6q-0.4 0.3-0.9 0.3l-6.1 0.6q-0.3 0.1-0.6-0.1q-0.2-0.1-0.2-0.2q-0.1-0.2-0.1-0.4l2-8.9q0.1-0.3-0.1-0.6q-0.2-0.3-0.5-0.5q-1.5-0.5-2.7-1.5q-0.4-0.2-0.7-0.2q-0.4 0.1-0.7 0.4l-6.3 5.8q-0.2 0.3-0.7 0.3q-0.1 0-0.2 0q-0.1-0.1-0.1-0.2l-2.9-6.2q-0.1-0.4 0-0.8q0.1-0.4 0.4-0.7l5.9-7.2c0.4-0.4 0.6-1 0.6-1.6q-0.2-2.5 0-5.1q0-0.1-0.1-0.3q0-0.2-0.2-0.3q-0.1-0.1-0.2-0.2q-0.2 0-0.4 0l-5.3-0.3q-0.2 0-0.3-0.1q-0.2-0.1-0.3-0.2q-0.1-0.1-0.1-0.3q-0.1-0.2 0-0.3l2.9-9.9q0.2-0.4 0.5-0.7q0.4-0.3 0.8-0.4l5.8-1.4c0.7-0.1 1.2-0.5 1.5-1.1q1.4-2.8 3.1-5.4c0.3-0.4 0.5-1 0.4-1.5l-1.9-6.4q-0.1-0.5 0.1-0.8q0.1-0.4 0.4-0.7l6.8-7.2c0.4-0.4 0.9-0.5 1.1-0.2l3.2 4.9c0.2 0.4 0.8 0.3 1.3 0q1.9-1.3 3.9-2.2c0.6-0.3 1-0.8 1.3-1.3l3.4-9q0.2-0.5 0.5-0.7q0.4-0.3 0.8-0.3l6.2-0.7q0.3 0 0.6 0.1q0.2 0.1 0.3 0.3q0 0.2 0 0.4l-2 8.8q-0.1 0.4 0.1 0.7q0.2 0.3 0.5 0.4q1.5 0.6 2.7 1.6q0.4 0.2 0.8 0.1q0.3 0 0.6-0.3l6.4-5.8c0.3-0.2 0.7-0.4 0.9-0.2q0.1 0 0.2 0.1l2.8 6.3q0.1 0.4 0 0.8q-0.1 0.3-0.4 0.6l-5.9 7.2c-0.4 0.5-0.6 1-0.6 1.6q0.2 1.3 0.1 2.6q0 1.2-0.1 2.5q0 0.2 0.1 0.3q0.1 0.2 0.2 0.3q0.1 0.1 0.3 0.2q0.1 0.1 0.3 0.1l5.3 0.3q0.2 0 0.4 0.1q0.2 0.1 0.3 0.3zm-23.3 18.4c6.4-6.7 9.4-16.8 6.8-22.6c-0.4-1-1.1-1.9-1.9-2.6c-0.9-0.7-1.9-1.1-3-1.3h-0.7c-1.5 0-3 0.3-4.4 1q-0.8 0.3-1.6 0.8q-2.6 1.5-4.7 3.8c-4.7 5-7.6 11.9-7.6 17.6q0 0.9 0.1 1.8q0.1 1.6 0.8 3.2c0.5 1.2 1.3 2.2 2.3 2.9c1.1 0.7 2.3 1 3.5 1h0.6h0.7q0.2-0.1 0.5-0.1l0.3-0.1l0.3-0.1c3.1-1 5.9-2.8 8.1-5.3z" />
	<path id="Layer" class="s8" d="m81.4 188.2q-0.5 0.5-1.1 0.7l-5.9 1.4q-0.6 0.2-1 0.7l-12.6-7.2c0.3-0.4 0.7-0.6 1.2-0.7l5.8-1.4q0.6-0.2 1.1-0.7z" />
	<path id="Layer" class="s2" d="m85.2 181l-12.5-7.2q0.1-0.1 0-0.2l-1.9-6.4q-0.1-0.3 0-0.7l9.6 5.5l3 1.7q-0.1 0.3 0 0.7l1.8 6.4q0.1 0.1 0 0.2z" />
	<path id="Layer" class="s2" d="m105.1 157.4q-0.2 0.2-0.3 0.5l-3.3 9l-12.6-7.2q0 0 0-0.1l3.4-9q0.1-0.2 0.3-0.4z" />
	<path id="Layer" class="s2" d="m123.2 162.3q-0.3-0.1-0.5 0q-0.2 0.1-0.4 0.3l-6.3 5.8q-0.3 0.3-0.7 0.3q-0.3 0.1-0.7-0.1q-1.2-1-2.7-1.6q-0.3-0.1-0.5-0.4q-0.2-0.3-0.1-0.7l2-8.8q0-0.2-0.1-0.4q0-0.2-0.2-0.3c-0.2-0.1-1.1-0.6-2.4-1.3q0.1 0 0.2 0q0.1 0 0.2 0.1z" />
	<path id="Layer" class="s2" d="m126 185.3q-0.2-0.1-0.4-0.1l-5.3-0.3q-0.2 0.1-0.3 0q-0.2-0.1-0.3-0.2q-0.2-0.1-0.2-0.3q-0.1-0.1-0.1-0.3q0.1-1.3 0.1-2.5z" />
	<path id="Layer" class="s6" d="m104.9 221.9l-6.5-3.8q0.9-0.5 1.8-1.2c0.6-0.4 1.1-0.3 1.3 0l3.2 4.9q0.1 0.1 0.2 0.1z" />
	<path id="Layer" class="s6" d="m85.2 221.5l-2 8.8q0 0.2 0.1 0.4q0 0.1 0.2 0.2l-10-5.8q0.4 0 0.7-0.3l6.3-5.8q0.3-0.3 0.7-0.4q0.3 0 0.7 0.2q1.2 1 2.7 1.5q0.3 0.2 0.5 0.5q0.2 0.3 0.1 0.7z" />
	<path id="Layer" class="s8" d="m77 209.1q-0.2 0.5-0.5 0.9l-5.9 7.2q-0.3 0.3-0.4 0.7l-12.5-7.2q0.1-0.4 0.4-0.8l5.9-7.1q0.3-0.4 0.5-0.9z" />
	<path id="Layer" class="s9" d="m101.4 166.9c-0.3 0.6-0.7 1-1.3 1.3q-2 1-3.8 2.2c-0.6 0.4-1.1 0.4-1.4 0l-3.1-4.8q-0.1-0.1-0.2-0.2l-6-3.4q1-0.6 2-1l0.3-0.1q0.3-0.2 0.6-0.5q0.1-0.2 0.2-0.3q0.1-0.1 0.2-0.2v-0.2z" />
	<path id="Layer" class="s6" d="m77.1 208.4q0 0.4-0.1 0.7l-12.5-7.2q0.1-0.3 0.1-0.7q-0.1-1.3-0.1-2.6l6 3.4q0.2 0.1 0.4 0.1l5.4 0.3q0.1 0 0.3 0.1q0.2 0 0.3 0.2q0.1 0.1 0.2 0.3q0 0.1 0 0.3q-0.2 2.5 0 5.1z" />
	<path id="Layer" class="s9" d="m85.2 181c0 0.5-0.1 0.9-0.3 1.3q-1.8 2.7-3.2 5.5q-0.1 0.2-0.3 0.4l-12.5-7.2q0.1-0.1 0.2-0.2q0.1-0.1 0.1-0.2q1.4-2.8 3.2-5.4q0.1-0.2 0.1-0.3q0.1-0.1 0.1-0.2q0-0.1 0-0.1q0 0 0-0.1q0-0.1 0-0.3q0.1-0.2 0-0.4z" />
	<path id="Layer" class="s2" d="m69.1 180.8q-0.1 0.1-0.2 0.2q0.1-0.1 0.2-0.2z" />
	<path id="Layer" class="s6" d="m73.2 225.1l-2.5-1.5l-0.5-0.3l-4.1-2.4q-0.6-0.3-1.1-0.6l-4.2-2.5q-0.1 0-0.1 0q-0.1-0.1-0.1-0.1l-2.8-6.3q-0.1-0.2 0-0.5q0-0.1 0-0.2l12.5 7.2q-0.1 0.4 0 0.8l2.8 6.2q0 0.1 0.1 0.2z" />
	<path id="Layer" class="s2" d="m73.4 190.9q-0.2 0.2-0.2 0.5l-0.4 1.2l-2.6 8.6q0 0.2 0 0.4q0.1 0.3 0.3 0.4l-6-3.5l-2.8-1.6l-0.5-0.3l-0.2-0.1l-0.5-0.3l-0.4-0.2l-0.8-0.5l-0.3-0.1l-1-0.6l-0.1-0.1q-0.1 0-0.1-0.1q-0.1-0.2-0.1-0.3q0-0.1 0-0.3l0.7-2.2l1.9-6.4l0.3-1.2q0.1-0.2 0.2-0.4z" />
	<path id="Layer" class="s10" d="m91.6 165.4q-0.3-0.1-0.5 0q-0.3 0.1-0.4 0.3l-6.7 7.1l-0.1 0.1q-0.3 0.4-0.5 0.8l-3-1.7l-9.5-5.4q0.1-0.5 0.4-0.9l2.8-2.9l4-4.3q0.2-0.1 0.4-0.2q0.1-0.1 0.4-0.1q0.1 0 0.2 0l6.5 3.8z" />
	<path id="Layer" class="s10" d="m112.9 156.4q-0.3-0.1-0.6-0.1l-6.1 0.7q-0.6 0-1 0.4l-12.6-7.2q0.5-0.4 1-0.5l6.2-0.6q0.4 0 0.6 0.1c0 0 0.7 0.4 1.7 1l0.8 0.5l5.3 3.1l1.3 0.7l1 0.6c1.3 0.7 2.2 1.2 2.4 1.3z" />
	<path id="Layer" class="s11" d="m263.8 76.4c-0.3-2-1.9-2.8-3.8-1.6l-106.5 61.4c-1.1 0.8-2.1 1.8-2.7 2.9c-0.7 1.2-1.1 2.5-1.2 3.8v235c0 2.3 1.5 3.4 3.4 2.5c-1.2 0.5-2.4 0.7-3.7 0.7c-1.2 0-2.4-0.3-3.6-0.9l-4.4-2.6c-1.1-0.7-2.1-1.7-2.7-2.9c-0.7-1.1-1.1-2.4-1.2-3.8v-235c0.1-1.3 0.5-2.6 1.2-3.8c0.6-1.2 1.6-2.1 2.7-2.9l106.5-61.5c1.2-0.6 2.5-0.9 3.8-0.9c1.4 0 2.7 0.3 3.9 0.9l4.5 2.6c1 0.7 1.9 1.6 2.6 2.6c0.6 1.1 1 2.3 1.2 3.5z" />
	<path id="Layer" fill-rule="evenodd" class="s12" d="m263.9 77v235c-0.1 1.3-0.5 2.6-1.2 3.8c-0.6 1.2-1.6 2.1-2.7 2.9l-106.5 61.5c-2.1 1.2-3.9 0.2-3.9-2.3v-235c0.1-1.3 0.5-2.6 1.2-3.8c0.6-1.1 1.6-2.1 2.7-2.9l106.5-61.4c2.1-1.3 3.8-0.3 3.9 2.2zm-5.6 28.7c0-2.2-1.5-3-3.3-1.9l-96.8 55.8c-1 0.7-1.8 1.5-2.4 2.5c-0.6 1-0.9 2.1-1 3.3v182.9c0 2.1 1.5 3 3.4 1.9l96.8-55.8c1.8-1.1 3.3-2.5 3.3-4.6z" />
	<path id="Layer" class="s13" d="m153 380.4c-1.2 0.5-2.4 0.7-3.7 0.7c-1.2-0.1-2.4-0.4-3.6-0.9l-4.4-2.6c-1.1-0.7-2.1-1.7-2.7-2.9c-0.7-1.2-1.1-2.5-1.2-3.8v-235c0.1-1.3 0.5-2.6 1.2-3.8l12.2 7c-0.7 1.2-1.1 2.5-1.2 3.8v235c0 2.3 1.5 3.3 3.4 2.5z" />
	<path id="Layer" class="s13" d="m206.7 111.7c1.5-0.8 2.6-0.1 2.6 1.5c0 0.9-0.3 1.8-0.7 2.6c-0.5 0.8-1.1 1.4-1.9 1.9c-1.4 0.8-2.6 0.2-2.6-1.5c0.1-0.9 0.3-1.8 0.8-2.5c0.4-0.8 1.1-1.5 1.8-2z" />
	<path id="Layer" class="s13" d="m199.2 124.7c5.3-2.9 14.7-8.5 19.9-11.6c0.9-0.5 1.6-0.2 1.6 0.8q-0.1 0.8-0.5 1.5q-0.4 0.7-1.1 1.2l-19.9 11.5c-0.9 0.5-1.6 0.1-1.6-0.8q0.1-0.8 0.5-1.5q0.4-0.7 1.1-1.1z" />
	<path id="Layer" class="s13" d="m194.2 127.6c0.8-0.5 1.5-0.1 1.5 0.8q-0.1 0.8-0.5 1.5q-0.4 0.7-1 1.1c-0.8 0.5-1.5 0.1-1.5-0.8q0.1-0.8 0.5-1.5q0.3-0.7 1-1.1z" />
	<path id="Layer" fill-rule="evenodd" class="s14" d="m204.9 343.8c-0.6 0-1.3-0.2-1.8-0.5c-1.3-0.8-2-2.3-2-4.4c0.1-2.2 0.7-4.3 1.8-6.3c1.2-1.9 2.7-3.5 4.5-4.7c1.8-1 3.5-1.2 4.9-0.4c1.3 0.7 2 2.3 2 4.4c-0.2 2.2-0.8 4.3-1.9 6.2c-1.1 1.9-2.7 3.6-4.5 4.8c-0.9 0.5-1.9 0.8-3 0.9zm5.5-15.8c-0.9 0-1.8 0.3-2.5 0.7c-1.7 1.2-3.1 2.7-4.2 4.4c-1 1.8-1.6 3.8-1.7 5.8c0 1.7 0.6 3 1.5 3.5c1 0.5 2.4 0.4 3.9-0.4c1.7-1.1 3.1-2.6 4.1-4.4c1-1.7 1.6-3.7 1.7-5.8c0-1.7-0.5-2.9-1.5-3.5q-0.6-0.3-1.3-0.3z" />
	<path id="Layer" class="s11" d="m258.3 105.7v184.2c-0.1 1.1-0.4 2.2-1 3.2c-0.6 1-1.4 1.9-2.4 2.5l-96.8 55.9c-1.8 1-3.3 0.2-3.3-1.9v-11.5l87.9-50.8c1.9-1 3.3-2.4 3.3-4.5v-173.9l8.9-5.1c1.9-1.1 3.4-0.2 3.4 1.9z" />
	<path id="Layer" class="s13" d="m258.2 105.7v184.2c-0.1 1.5-0.6 3-1.6 4.2l-12.9-7.5c0.7-0.4 1.3-0.9 1.7-1.6c0.3-0.6 0.6-1.4 0.6-2.2v-173.9l8.9-5.1c1.9-1.1 3.4-0.2 3.3 1.9z" />
	<path id="Layer" class="s1" d="m163.7 292.4l-5.6-3.2q-0.1-0.1-0.2-0.2l-1-1.8l3.3-1.9l-0.1 0.3z" />
	<path id="Layer" class="s15" d="m168.5 280.4l-4 11.7q-0.1 0.2-0.2 0.3q-0.1 0-0.3 0.1q-0.2 0-0.3-0.1q-0.1-0.1-0.2-0.2l-3.9-6.6z" />
	<path id="Layer" class="s15" d="m177.7 272.1c0 1.7 0 3.1-2.4 4.5l-43.7 25.2c-0.8 0.4-1.7 0.6-2.7 0.6c-0.9 0-1.8-0.2-2.6-0.6l-2.2-1.3c-0.8-0.5-1.5-1.2-1.9-2c-0.5-0.8-0.8-1.7-0.8-2.6v-22c0-1 0.3-1.9 0.8-2.7c0.4-0.8 1.1-1.5 1.9-2l43.4-25c0.8-0.4 1.7-0.6 2.6-0.6c1 0 1.9 0.2 2.7 0.6l2.2 1.3c0.8 0.5 1.4 1.2 1.9 2c0.5 0.8 0.8 1.7 0.8 2.6z" />
	<path id="Layer" class="s1" d="m121.4 273.9c0.1-1 0.3-1.9 0.8-2.7l7.6 4.4c-0.5 0.8-0.8 1.7-0.8 2.6v22c0 1.6 0.9 2.3 2.2 1.8q-1.2 0.5-2.5 0.4q-1.3 0-2.4-0.6l-2.2-1.3c-0.8-0.5-1.4-1.2-1.9-2c-0.4-0.8-0.7-1.7-0.8-2.6z" />
	<path id="Layer" class="s16" d="m177.6 249.4c-0.3-1.2-1.3-1.5-2.6-0.8l-43.3 25c-0.8 0.5-1.5 1.2-1.9 2l-7.6-4.4c0.5-0.8 1.1-1.5 1.9-2l43.4-25c0.8-0.4 1.7-0.6 2.7-0.6c0.9 0 1.8 0.2 2.7 0.6l2.1 1.3q1 0.7 1.7 1.7q0.7 1 0.9 2.2z" />
	<path id="Layer" class="s12" d="m136.2 279.9l31-18c0.9-0.6 1.6-0.3 1.6 0.5q-0.1 0.7-0.5 1.4q-0.5 0.6-1.1 1l-31 18c-0.9 0.5-1.6 0.3-1.6-0.5q0.1-0.8 0.5-1.4q0.4-0.7 1.1-1z" />
	<path id="Layer" class="s12" d="m136.2 287.2l31-18c0.9-0.5 1.6-0.3 1.6 0.5q-0.1 0.8-0.5 1.4q-0.5 0.7-1.1 1l-31 18c-0.9 0.6-1.6 0.3-1.6-0.5q0.1-0.7 0.5-1.4q0.4-0.6 1.1-1z" />
	<path id="Layer" class="s5" d="m92.7 300.5l-5.5-3.2q-0.2-0.1-0.3-0.2l-1-1.8l3.3-1.9l-0.1 0.3z" />
	<path id="Layer" class="s8" d="m92.7 300.5l-5.5-3.2q-0.2-0.1-0.3-0.2l-1-1.8l3.3-1.9l-0.1 0.3z" />
	<path id="Layer" class="s7" d="m97.5 288.5l-4 11.7q0 0.2-0.2 0.3q-0.1 0-0.2 0.1q-0.2 0-0.3-0.1q-0.2-0.1-0.3-0.2l-3.8-6.6z" />
	<path id="Layer" class="s7" d="m134.2 264.3c0 1.7 0 3.1-2.4 4.5l-51.8 29.9c-0.8 0.4-1.7 0.7-2.7 0.7c-0.9 0-1.8-0.3-2.7-0.7l-2.1-1.2c-0.8-0.5-1.5-1.2-1.9-2c-0.5-0.8-0.8-1.8-0.8-2.7v-25.3c0-0.9 0.3-1.8 0.8-2.6c0.4-0.8 1.1-1.5 1.9-2l51.5-29.8c0.8-0.4 1.7-0.6 2.7-0.6c0.9 0 1.8 0.2 2.6 0.6l2.2 1.3c0.8 0.5 1.4 1.2 1.9 2c0.5 0.8 0.7 1.7 0.8 2.7z" />
	<path id="Layer" class="s8" d="m69.8 267.5c0-0.9 0.3-1.8 0.8-2.6l7.5 4.3c-0.5 0.8-0.7 1.8-0.8 2.7v25.3c0 1.5 1 2.2 2.2 1.7q-1.2 0.5-2.4 0.5q-1.3-0.1-2.5-0.7l-2.1-1.2c-0.8-0.5-1.5-1.2-1.9-2c-0.5-0.8-0.8-1.8-0.8-2.7z" />
	<path id="Layer" class="s4" d="m134.1 238.3c-0.3-1.2-1.3-1.5-2.6-0.8l-51.5 29.8c-0.8 0.4-1.5 1.1-1.9 2l-7.5-4.4c0.4-0.8 1.1-1.5 1.9-2l51.5-29.8c0.8-0.4 1.8-0.6 2.7-0.6c0.9 0 1.8 0.2 2.7 0.6l2.2 1.3q1 0.7 1.6 1.7q0.7 1 0.9 2.2z" />
	<path id="Layer" class="s17" d="m84.5 279l27.9-16.1c0.9-0.5 1.6-0.3 1.6 0.5q-0.1 0.8-0.5 1.4q-0.5 0.6-1.1 1l-27.9 16.1c-0.9 0.5-1.6 0.3-1.6-0.5q0.1-0.8 0.5-1.4q0.5-0.6 1.1-1z" />
	<path id="Layer" class="s17" d="m84.5 286.4l39.1-22.8c0.9-0.5 1.7-0.2 1.7 0.6q-0.1 0.7-0.6 1.4q-0.4 0.6-1.1 1l-39.1 22.7c-0.9 0.5-1.6 0.3-1.6-0.5q0.1-0.8 0.5-1.4q0.5-0.7 1.1-1z" />
	<path id="Layer" class="s17" d="m84.5 271.3l39.1-22.7c0.9-0.6 1.7-0.3 1.7 0.5q-0.1 0.8-0.6 1.4q-0.4 0.6-1.1 1l-39.1 22.7c-0.9 0.5-1.6 0.3-1.6-0.5q0.1-0.8 0.5-1.4q0.5-0.7 1.1-1z" />
	<path id="Layer" class="s1" d="m436.3 110.6v43.3c0 0.9-0.3 1.7-0.7 2.5c-0.5 0.8-1.1 1.5-1.9 2l-86 49.6v3.8l-4-2.4q-0.4-0.2-0.6-0.7q-0.2-0.5-0.2-0.9v-45.6c0.1-0.9 0.3-1.8 0.8-2.6c0.5-0.8 1.1-1.4 1.8-1.9l88.3-51q0.4-0.3 0.9-0.3q0.5-0.1 0.9 0.1l4.1 2.4z" />
	<path id="Layer" class="s16" d="m343.7 159.6c0.4-0.8 1.1-1.4 1.8-1.9l88.3-50.9q0.4-0.3 0.9-0.4q0.5 0 0.9 0.2l4.1 2.3l-3.3 1.7v4l-85.3 49.3z" />
	<path id="Layer" class="s0" d="m349.6 160l88.2-50.9c1.5-0.9 2.6-0.2 2.6 1.5v45.6c0 0.9-0.3 1.7-0.7 2.5c-0.5 0.8-1.1 1.5-1.9 2l-88.2 50.9c-1.4 0.8-2.6 0.1-2.6-1.5v-45.6c0.1-0.9 0.3-1.8 0.8-2.6c0.4-0.7 1-1.4 1.8-1.9z" />
	<path id="Layer" class="s7" d="m354.1 164.4l26.4-15.2c1.7-1 3-0.2 3 1.7v30.5c0 1.1-0.3 2.1-0.8 3c-0.6 0.9-1.3 1.7-2.2 2.3l-26.4 15.3c-1.7 1-3 0.2-3-1.8v-30.5c0.1-1.1 0.4-2.1 0.9-3c0.5-0.9 1.2-1.7 2.1-2.3z" />
	<path id="Layer" class="s16" d="m367.1 163.3c2.8-1.6 5.1-0.3 5.1 3c-0.1 1.7-0.6 3.4-1.5 5c-0.9 1.5-2.1 2.8-3.6 3.8c-2.8 1.6-5.1 0.3-5.1-3c0.1-1.7 0.6-3.5 1.5-5c0.9-1.5 2.1-2.8 3.6-3.8z" />
	<path id="Layer" class="s16" d="m377.1 181.9l-19.6 11.3v-1.5c0-5.3 3.8-11.7 8.4-14.4l2.8-1.7c4.7-2.6 8.4-0.3 8.4 5z" />
	<path id="Layer" class="s1" d="m393.9 143.8l36.2-21c1.2-0.7 2.2-0.2 2.2 1.1q-0.1 1.1-0.7 2.1q-0.5 0.9-1.5 1.5l-36.2 21c-1.3 0.7-2.2 0.2-2.2-1.1q0.1-1.1 0.6-2q0.6-1 1.6-1.6z" />
	<path id="Layer" class="s1" d="m393.9 153.2l36.2-21c1.2-0.7 2.2-0.2 2.2 1.1q-0.1 1.1-0.6 2.1q-0.6 0.9-1.6 1.5l-36.2 21c-1.3 0.7-2.2 0.2-2.2-1.1q0.1-1.1 0.6-2.1q0.6-0.9 1.6-1.5z" />
	<path id="Layer" class="s1" d="m393.9 162.6l36.2-20.9c1.2-0.7 2.2-0.3 2.2 1q-0.1 1.1-0.6 2.1q-0.6 0.9-1.6 1.5l-36.2 21c-1.3 0.7-2.2 0.2-2.2-1.1q0.1-1.1 0.6-2.1q0.6-0.9 1.6-1.5z" />
	<path id="Layer" class="s1" d="m393.9 172l36.2-21c1.2-0.7 2.2-0.2 2.2 1.1q-0.1 1.1-0.6 2q-0.6 1-1.6 1.6l-36.2 20.9c-1.3 0.7-2.2 0.2-2.2-1.1q0.1-1.1 0.7-2q0.5-0.9 1.5-1.5z" />
	<path id="Layer" class="s18" d="m291.8 283.4c0 2.1-1.5 3.5-3.3 4.5l-96.8 55.9c-1.9 1.1-3.4 0.2-3.4-1.9v-182.9c0.1-1.2 0.4-2.3 1-3.3c0.6-1 1.4-1.8 2.4-2.5l96.8-55.8c1.8-1.1 3.3-0.2 3.3 1.9z" />
	<path id="Layer" fill-rule="evenodd" class="s7" d="m190.2 344.8q-0.6 0-1.1-0.3q-0.7-0.5-1-1.2q-0.3-0.6-0.3-1.4v-182.9c0.1-1.2 0.5-2.5 1.1-3.5c0.6-1.1 1.5-2 2.5-2.7l96.8-55.9c0.4-0.3 0.9-0.5 1.4-0.5c0.5-0.1 1 0 1.5 0.3c0.4 0.2 0.8 0.6 1 1.1c0.2 0.4 0.3 1 0.2 1.5v184.1c0 2.6-2 4.1-3.6 5l-96.8 55.9q-0.8 0.5-1.7 0.5zm99.8-247.4q-0.7 0-1.2 0.4l-96.8 55.8c-0.9 0.6-1.7 1.4-2.2 2.3c-0.5 1-0.9 2-0.9 3.1v182.9q-0.1 0.5 0 1q0.2 0.5 0.7 0.7q0.4 0.3 1 0.2q0.5-0.1 0.9-0.4l96.8-55.9c2.1-1.2 3-2.5 3-4.1v-184.2q0.1-0.5-0.1-0.9q-0.2-0.5-0.6-0.8q-0.3-0.1-0.6-0.1z" />
	<path id="Layer" class="s19" d="m342.1 290.8q-0.9 3.9-2.3 7.7c-2.3 6.9-4.8 8.9-8 8.9c-5-0.1-4.8-2-2.4-5c1.1-1.3 2-2.8 2.6-4.4q-1.2 0.8-2.5 1.4c-0.4 0.1-0.8 0.1-1.3 0c-0.4-0.1-0.7-0.4-0.9-0.8c-0.1-0.4 0.8-0.6 1.8-1.7c1.3-1.4 2-2.5 3.8-3.7c0.7-0.4 1.2-1 1.4-1.7c1.2-4.2 1.7-10.8 2-16c0.3-5.9-2.8-23.7-2.8-23.7l2.6-15.1c7 4.8 9.1 11.1 8.4 37.1c-0.2 4.2-1.3 10.2-2.5 17z" />
	<path id="Layer" class="s11" d="m330.3 234.8c2.1-0.4 4.3-0.1 6.3 0.9c1.9 1 3.4 2.5 4.4 4.5c2.9 5.2 3.6 14.1 4 23c0 0-5.8 4.8-12.7 2.4z" />
	<path id="Layer" class="s13" d="m340.1 378c0.5 0.2 0.6 1.2 0.7 3.2c0 1.5 0.4 4.1-1.4 4.7c-1.8 0.5-4.4 0.2-5.5-1.2q-2-2.9-4.4-5.5c-1.7-1.9-3.6-3.6-4.3-6.3c-0.6-2.3-0.1-3.4 1.5-4.1c2.2-0.9 5.7 2.2 7.5 2.7c1.5 0.4 5.3 6.3 5.8 6.5z" />
	<path id="Layer" class="s19" d="m340.1 376.2l-0.1 2.4c-0.9 0.6-1.9 0.9-3 1c-1.1 0-2.2-0.3-3.1-0.8c-0.1-0.2-0.7-3.5-0.7-3.5z" />
	<path id="Layer" class="s13" d="m320.3 392.1q0.6 2 1 4c0.3 1.5 0.8 3.9 0.3 5c-0.6 1.2-2.6 1.9-5.7 1.9c-2 0-5.2 1.4-7.4 2.6c-2.1 1.2-6.8 1.7-9.2 1.4c-2.8-0.3-5.7-1.9-6.1-3.1c-0.5-1.1 0.1-2.3 6.7-5.1c0 0 9.1-3 12.3-6.5z" />
	<path id="Layer" class="s19" d="m320.3 389.5l-0.1 2.8c0 1-1.2 2.6-4.3 2.5c-2.3-0.1-3.8-0.7-3.7-2.5v-2.7z" />
	<path id="Layer" class="s11" d="m340.1 376.2c0 0-2.5 2.5-6.7 0.3c0 0-4.2-19.5-5.7-28.7c-1.6-10.6-2.6-16.1-3-21.8c-0.4-5.7-1.2-21.8-1.2-21.8l-0.8 0.4c-0.1 4.1-0.8 8.6-1.4 17.9c-0.6 9.3-1.3 20-1.3 20c1.5 4.6 2.3 9.5 2.5 14.4c0.3 6.5-2.3 32.5-2.3 32.5c-1.2 0.7-2.6 1.1-4 1.1c-1.4 0.1-2.8-0.3-4-0.9c0 0-3.3-21.5-4.5-30.7c-1.1-9.3-2.1-14.3-2.6-20c-0.4-5.7-2.5-38.8-1.8-51.8c0.6-13 36.9-5.7 36.9-5.7c-0.2 2.8 0.3 17-0.2 28.2c-0.4 10.4-1.3 21.4-1.3 21.4q2.1 6.2 2.9 12.7c1.1 8-1.5 32.5-1.5 32.5z" />
	<path id="Layer" class="s13" d="m322.7 304.6c0 0 8.8-4.4 13.2-8.3c0 0-4 5.8-9.4 8.4c0 0-1.9 20-1.9 19.5l-1.1-19.6z" />
	<path id="Layer" class="s19" d="m325.5 228.3l2.2 13.4l-10.7 0.8l-2.1-11.9z" />
	<path id="Layer" class="s7" d="m340.1 256.2c0.3 8.9 0.2 29.5 0.2 29.5c0 0-1.4 4.6-12.6 7.1c-8.2 1.5-16.7 0.6-24.5-2.4c0-5.6 1.3-34.2 1.3-34.2c0.3-12.3 3.7-15.5 7.4-16.9q8.8-2.9 17.9-4.4c4.1-0.8 8.1 2.7 9.2 5.9c0.7 2.2 0.8 7.8 1.1 15.4z" />
	<path id="Layer" class="s20" d="m306.7 221.7c0 0-2.1-0.3-2.4-0.7c-0.4-0.4 2.4-4.7 2.4-4.7z" />
	<path id="Layer" class="s19" d="m329.2 206.6c4 3 3.2 10.6-0.3 16.2c-3 4.8-9.6 7.3-12.5 8.2c-2.3 0.7-7 0.7-7.8-0.2c-1.3-1.2-2.3-4.2-2-13.6c0.3-9 1.9-11.5 7.6-12.9c2.3-0.5 9.4-1.9 15 2.3z" />
	<path id="Layer" class="s13" d="m308.4 201.3c5.5 0.4 10.1-4.1 17.2-2.6c3.3 0.7 6.2 2.3 6.9 5.9c5.1 2 5 9.2 1.6 17.2c-1.6 3.8-5.5 7.4-8.3 8.1c-4.6 1.1-7.2 0.3-7.2 0.3c-2.2-2.7-2.4-7.7-2.4-7.7c0 0 1.7 0.8 3.5-1.5c1.8-2.3 1.3-6.1-1.6-6.4c-3-0.4-3.8 3.1-3.8 3.1c-1.9-0.8-1.3-5.6-2.4-6.8c-2.1-0.9-3.9-2.3-5.2-4.2c-2-3.4-1.4-5.6 1.8-5.4z" />
	<path id="Layer" class="s13" d="m332.1 205.1q-0.1-0.5 0-0.9q0-0.4 0.3-0.8q0.2-0.4 0.6-0.6q0.4-0.2 0.8-0.3q0.5 0 0.9 0.1q0.4 0.1 0.7 0.4q0.4 0.3 0.5 0.8l-3.3 2q-0.3-0.3-0.5-0.7z" />
	<path id="Layer" class="s19" d="m257.9 255c-1.7-1.7-2.8-3.9-3-6.3c-0.2-1.8 0.2-3.5 1.1-5c0.9-1.1 2.4-2 3.6-1.4c0.8 0.5 1.4 1.2 1.7 2c1.1 1.8 3.2 4.9 5.5 5q0.3 0 0.5-0.1q0.1-0.2 0.2-0.4c0.3-0.9 0.2-1.9 0.5-2.9q0.2-0.5 0.5-1q0.3-0.4 0.8-0.7c1.5-0.6 1.4 1.5 1.3 2.4c-0.1 0.7-0.1 1.4-0.1 2.1c-0.1 1.5-0.3 4.3 0.9 5.5q0.9 0.7 1.9 1.1c2.3 1.4 4.8 2.6 7.2 3.9q4.4 2.3 8.9 4.5c0 0 11.9-15.1 14.7-19.2c2.8-4.2 8.1-5.2 8.1-5.2c1.4 2.1 2.1 4.7 2.1 7.2c0 2.6-0.7 5.1-2.1 7.3c0 0-16.6 19.3-19.8 21.1c-3.2 1.8-23.9-13.5-25.6-14.3c-3.3-1.3-6.3-3.2-8.9-5.6z" />
	<path id="Layer" class="s11" d="m314 253.2c-2.1 4.5-10 12.5-10 12.5c-2.4-0.5-4.6-1.6-6.3-3.3c-1.8-1.6-3.1-3.8-3.7-6.2c0 0 5.8-8 10.1-12.9c3.7-4.2 7.5-4.4 9.8-4.6c2.7 2.9 2.3 10.1 0.1 14.5z" />
	<path id="Layer" class="s12" d="m353.8 136.8v-31.5l18.6 12.3c-5.4 8.4-11.5 14.8-18.6 19.2z" />
	<path id="Layer" class="s11" d="m353.8 136.8l-7.4-4.3v-31.5l7.4 4.3z" />
	<path id="Layer" class="s5" d="m383.2 81.4l-27.9 20l-7.4-4.2l27.9-20.1z" />
	<path id="Layer" class="s21" d="m383.2 81.4l-27.9 20l-7.4-4.2l27.9-20.1z" />
	<path id="Layer" class="s5" d="m383.2 81.4c0.8 10.2-2.2 21.4-8.7 32.7l-11.6-7.7l-7.6-5z" />
	<path id="Layer" class="s2" d="m383.2 81.4c0.8 10.2-2.2 21.4-8.7 32.7l-11.6-7.7l-7.6-5z" />
	<path id="Layer" class="s3" d="m374.5 114.1l-7.4-4.3l-19.2-12.6l7.4 4.3z" />
	<path id="Layer" class="s22" d="m374.5 114.1l-7.4-4.3l-19.2-12.6l7.4 4.3z" />
	<path id="Layer" class="s5" d="m344.1 87.7l-5.3-21.6c0.8-0.6 1.5-1.1 2.4-1.8c9.8-7 19.1-8.3 25.6-4.6l7.4 4.3c2.2 2.7 0.5 5.5 1.2 10l-29.1 21l-0.3 0.2z" />
	<path id="Layer" class="s23" d="m344.1 87.7l-5.3-21.6c0.8-0.6 1.5-1.1 2.4-1.8c9.8-7 19.1-8.3 25.6-4.6l7.4 4.3c2.2 2.7 0.5 5.5 1.2 10l-29.1 21l-0.3 0.2z" />
	<path id="Layer" class="s5" d="m351.6 92l-5.3-21.6c0.7-0.6 1.4-1.1 2.3-1.8c16.5-11.8 31.5-7.4 34.3 9.7l-29.2 21l-0.3 0.2z" />
	<path id="Layer" class="s10" d="m351.6 92l-5.3-21.6c0.7-0.6 1.4-1.1 2.3-1.8c16.5-11.8 31.5-7.4 34.3 9.7l-29.2 21l-0.3 0.2z" />
	<path id="Layer" class="s5" d="m338.8 66.1l7.5 4.3l7.1 29.1l-7.4-4.3z" />
	<path id="Layer" class="s9" d="m338.8 66.1l7.5 4.3l7.1 29.1l-7.4-4.3z" />
	<path id="Layer" class="s5" d="m343.5 134.1c-4.8 2.6-9 6.1-12.9 5.9l-7.5-4.3c-3.9-2.2-6.8-6.3-8.2-12.1c-2-8.1-0.8-18.4 3.5-29.1c3.9-9.8 9.9-18.7 17.7-26l7.4 4.3l-2.7 14.7l2.7 11.2z" />
	<path id="Layer" class="s8" d="m343.5 134.1c-4.8 2.6-9 6.1-12.9 5.9l-7.5-4.3c-3.9-2.2-6.8-6.3-8.2-12.1c-2-8.1-0.8-18.4 3.5-29.1c3.9-9.8 9.9-18.7 17.7-26l7.4 4.3l-2.7 14.7l2.7 11.2z" />
	<path id="Layer" class="s7" d="m351 138.4c-13.8 7.3-25.2 3.2-28.6-10.5c-2-8.1-0.8-18.4 3.5-29.1c3.9-9.8 9.9-18.7 17.7-26l4.7 19l2.7 11.1z" />
	<path id="Layer" class="s5" d="m367.7 221.7q0-0.7 0.4-1.3q0.3-0.6 0.9-0.9l66.1-38.2q0.6-0.3 1.3-0.3q0.7 0 1.3 0.3l1.4 0.8q0.6 0.4 0.9 1q0.4 0.6 0.4 1.3v50.7q0 0.6-0.4 1.2q-0.3 0.6-0.9 1l-66.1 38.2q-0.6 0.3-1.3 0.3q-0.7 0-1.3-0.3l-1.4-0.9q-0.6-0.3-1-0.9q-0.3-0.6-0.3-1.3z" />
	<path id="Layer" class="s4" d="m367.7 221.7q0-0.7 0.4-1.3q0.3-0.6 0.9-0.9l66.1-38.2q0.6-0.3 1.3-0.3q0.7 0 1.3 0.3l1.4 0.8q0.6 0.4 0.9 1q0.4 0.6 0.4 1.3v50.7q0 0.6-0.4 1.2q-0.3 0.6-0.9 1l-66.1 38.2q-0.6 0.3-1.3 0.3q-0.7 0-1.3-0.3l-1.4-0.9q-0.6-0.3-1-0.9q-0.3-0.6-0.3-1.3z" />
	<path id="Layer" class="s5" d="m373.7 275.1l-0.7 0.4q-0.6 0.3-1.3 0.3q-0.7 0-1.3-0.3l-1.4-0.9q-0.6-0.3-0.9-0.9q-0.4-0.6-0.4-1.3v-50.7q0-0.7 0.4-1.3l5.6 3.3z" />
	<path id="Layer" class="s2" d="m373.7 275.1l-0.7 0.4q-0.6 0.3-1.3 0.3q-0.7 0-1.3-0.3l-1.4-0.9q-0.6-0.3-0.9-0.9q-0.4-0.6-0.4-1.3v-50.7q0-0.7 0.4-1.3l5.6 3.3z" />
	<path id="Layer" class="s7" d="m440.4 184.4v50.7q0 0.7-0.4 1.3q-0.3 0.5-0.7 0.8l-0.1 0.1l-66.2 38.2q-0.2 0.1-0.4 0.1q-0.3 0.1-0.5 0q-0.2-0.2-0.3-0.4q-0.1-0.2-0.1-0.5v-50.7q0-0.3 0.1-0.5q0.1-0.3 0.3-0.5q0.3-0.1 0.5-0.2q0.3 0 0.6 0.1l27.8 6.6l3.6 0.9q0.7 0.1 1.3-0.1q0.6-0.3 1.1-0.8l4.2-5.9l28.4-39.5c0.4-0.7 0.8-0.5 0.8 0.3z" />
	<path id="Layer" class="s8" d="m430.7 242.2l-19.6-18.5l29.3 11.4q-0.1 0.7-0.4 1.3q-0.3 0.5-0.8 0.8l-0.1 0.1z" />
	<path id="Layer" class="s8" d="m371.7 273.9l29.3-44.4l-5.2 32.8l-22.8 13.2q-0.2 0.1-0.4 0.1q-0.3 0.1-0.5 0q-0.2-0.2-0.3-0.4q-0.1-0.2-0.1-0.5z" />
	<path id="Layer" class="s7" d="m440 236.4q-0.3 0.5-0.8 0.8l-66.2 38.3q-0.2 0.1-0.4 0.1q-0.3 0.1-0.5 0l31.7-50.6c0.6-1 1.6-1.8 2.7-2.1c1.2-0.4 2.4-0.3 3.5 0.2z" />
	<path id="Layer" class="s2" d="m440.3 183l-31.9 51.1c-0.7 1-1.7 1.7-2.8 2.1c-1.1 0.3-2.4 0.3-3.5-0.2l-30.4-13.4z" />
	<path id="Layer" class="s7" d="m440.3 183l-32.1 49.1c-0.6 0.9-1.5 1.6-2.6 2c-1 0.3-2.2 0.3-3.3-0.1l-30.6-11.4z" />
</svg>